# xmcd
#
# Track frame offsets:
#	150
#	22166
#	43451
#	65704
#	88359
#	118221
#	132584
#	149296
#	170340
#	186375
#	204864
#	222484
#	237370
#	251733
#	272812
#	293556
#	314459
#	334230
#
# Disc length: 4728 seconds
#
# Revision: 1
# Processed by: cddbd v1.5.2PL0 Copyright (c) Steve Scherf et al.
# Submitted via: audiograbber 1.83.01
#
DISCID=32127612
DTITLE=Nicolae Paleru - De Sfantu' Nicolae Paleru
DYEAR=1900
DGENRE=Populara
TTITLE0=Niculae, Niculae
TTITLE1=Va cinstesc pe toti in seara asta
TTITLE2=A stiu mosu' ce-mi lasa
TTITLE3=Sa pretuiesti orice zi
TTITLE4=Tinerete, tinerete
TTITLE5=Anu' asta fac avere
TTITLE6=Cate am facut in viata
TTITLE7=Eu iubesc ca un nebun
TTITLE8=Eu n-as suflet rau
TTITLE9=Lauttare, ia-ti vioara!
TTITLE10=M-a lasat nevasta
TTITLE11=Mai am o dambla
TTITLE12=Omul daca n-ar mai bea
TTITLE13=Sanatos baiatul meu
TTITLE14=Vreau sa fie veselie
TTITLE15=Azi mi se umple oborul
TTITLE16=Sa mai tragem o bauta
TTITLE17=Omule, din viata n-o sa pleci
EXTD=CD distribuit cu revista Taifasuri
EXTT0=
EXTT1=
EXTT2=
EXTT3=
EXTT4=
EXTT5=
EXTT6=
EXTT7=
EXTT8=
EXTT9=
EXTT10=
EXTT11=
EXTT12=
EXTT13=
EXTT14=
EXTT15=
EXTT16=
EXTT17=
PLAYORDER=
